<?xml version="1.0" encoding="UTF-8"?>
<svg width="180px" height="47px" viewBox="0 0 180 47" version="1.1" xmlns="http://www.w3.org/2000/svg" xmlns:xlink="http://www.w3.org/1999/xlink">
    <title>logo-DataLink</title>
    <g id="Page-1" stroke="none" stroke-width="1" fill="none" fill-rule="evenodd">
        <g id="DataLink" transform="translate(-331.000000, -126.000000)" fill="#158EEC" fill-rule="nonzero">
            <g id="Group-6" transform="translate(331.000000, 126.000000)">
                <g id="DataLink" transform="translate(55.832191, 13.485593)">
                    <path d="M0,19.024448 L0,1.60478337 L7.51589743,1.60478337 C10.4877006,1.60478337 12.8115815,2.43305865 14.4875402,4.08960922 C16.0771093,5.65988112 16.8718939,7.73056933 16.8718939,10.3016739 C16.8718939,12.8727784 16.0771093,14.9434666 14.4875402,16.5137385 C12.7943036,18.1875448 10.4704226,19.024448 7.51589743,19.024448 L0,19.024448 Z M3.29144474,16.2290189 L7.51589743,16.2290189 C9.43374712,16.2290189 10.9110097,15.6940911 11.9476852,14.6242355 C12.9670828,13.5716357 13.4767816,12.1307818 13.4767816,10.3016739 C13.4767816,8.47256594 12.9670828,7.03171206 11.9476852,5.97911222 C10.9110097,4.90925664 9.43374712,4.37432885 7.51589743,4.37432885 L3.29144474,4.37432885 L3.29144474,16.2290189 Z" id="Shape"></path>
                    <path d="M26.3574748,19.3350512 C24.3014017,19.283284 22.616804,18.5930546 21.3036817,17.264363 C20.0078373,15.9356714 19.3339982,14.2359815 19.2821644,12.1652933 C19.2821644,10.1118608 19.9560035,8.403543 21.3036817,7.04033992 C22.6686378,5.65988112 24.3532355,4.96965171 26.3574748,4.96965171 C28.4999375,4.96965171 30.2018131,5.74615979 31.4631017,7.29917595 L31.4631017,5.28025494 L34.4694606,5.28025494 L34.4694606,19.024448 L31.4631017,19.024448 L31.4631017,17.005527 C30.1845352,18.5585431 28.4826596,19.3350512 26.3574748,19.3350512 Z M26.9017294,16.7725745 C28.3185193,16.7725745 29.4502234,16.3239254 30.2968417,15.4266272 C31.0916263,14.5810962 31.4890185,13.4939849 31.4890185,12.1652933 C31.4890185,10.8366016 31.0829873,9.74086247 30.2709248,8.87807571 C29.4243065,7.98077749 28.3012414,7.53212838 26.9017294,7.53212838 C25.5022175,7.53212838 24.3877913,7.98940536 23.5584509,8.90395932 C22.7809443,9.74949034 22.392191,10.8366016 22.392191,12.1652933 C22.392191,13.4939849 22.7809443,14.5810962 23.5584509,15.4266272 C24.3877913,16.3239254 25.5022175,16.7725745 26.9017294,16.7725745 Z" id="Shape"></path>
                    <path d="M44.317878,19.3350512 C42.7974205,19.3350512 41.6397996,18.955425 40.845015,18.1961727 C40.0329525,17.4196646 39.6269213,16.2549025 39.6269213,14.7018863 L39.6269213,7.50624477 L37.0870663,7.50624477 L37.0870663,5.28025494 L39.6269213,5.28025494 L39.6269213,1.60478337 L42.685114,1.60478337 L42.685114,5.28025494 L47.3501538,5.28025494 L47.3501538,7.50624477 L42.685114,7.50624477 L42.685114,14.7277699 C42.7196699,16.090973 43.4021479,16.7725745 44.7325482,16.7725745 C45.5446106,16.7725745 46.3307562,16.5309942 47.0909849,16.0478337 L47.8684916,18.4550087 C46.9700395,19.0417037 45.7865016,19.3350512 44.317878,19.3350512 Z" id="Path"></path>
                    <path d="M56.5247321,19.3350512 C54.468659,19.283284 52.7840613,18.5930546 51.470939,17.264363 C50.1750946,15.9356714 49.5012555,14.2359815 49.4494217,12.1652933 C49.4494217,10.1118608 50.1232608,8.403543 51.470939,7.04033992 C52.835895,5.65988112 54.5204927,4.96965171 56.5247321,4.96965171 C58.6671948,4.96965171 60.3690704,5.74615979 61.6303589,7.29917595 L61.6303589,5.28025494 L64.6367179,5.28025494 L64.6367179,19.024448 L61.6303589,19.024448 L61.6303589,17.005527 C60.3517925,18.5585431 58.6499168,19.3350512 56.5247321,19.3350512 Z M57.0689867,16.7725745 C58.4857766,16.7725745 59.6174807,16.3239254 60.464099,15.4266272 C61.2588835,14.5810962 61.6562758,13.4939849 61.6562758,12.1652933 C61.6562758,10.8366016 61.2502446,9.74086247 60.4381821,8.87807571 C59.5915638,7.98077749 58.4684986,7.53212838 57.0689867,7.53212838 C55.6694748,7.53212838 54.5550486,7.98940536 53.7257082,8.90395932 C52.9482016,9.74949034 52.5594482,10.8366016 52.5594482,12.1652933 C52.5594482,13.4939849 52.9482016,14.5810962 53.7257082,15.4266272 C54.5550486,16.3239254 55.6694748,16.7725745 57.0689867,16.7725745 Z" id="Shape"></path>
                    <polygon id="Path" points="69.0944226 19.024448 69.0944226 1.60478337 72.3081167 1.60478337 72.3081167 16.2290189 82.623038 16.2290189 82.623038 19.024448"></polygon>
                    <path d="M85.162893,19.024448 L85.162893,5.28025494 L88.1951688,5.28025494 L88.1951688,19.024448 L85.162893,19.024448 Z M85.0073916,1.68243417 C85.0073916,1.21652933 85.1715319,0.819647418 85.4998125,0.491788451 C85.8280931,0.163929484 86.2168464,0 86.6660724,0 C87.1325764,0 87.5299687,0.163929484 87.8582493,0.491788451 C88.1865299,0.819647418 88.3506701,1.21652933 88.3506701,1.68243417 C88.3506701,2.14833902 88.1865299,2.54522093 87.8582493,2.8730799 C87.5299687,3.20093886 87.1325764,3.36486835 86.6660724,3.36486835 C86.2168464,3.36486835 85.8280931,3.20093886 85.4998125,2.8730799 C85.1715319,2.54522093 85.0073916,2.14833902 85.0073916,1.68243417 Z" id="Shape"></path>
                    <path d="M92.3937046,19.024448 L92.3937046,5.28025494 L95.4259805,5.28025494 L95.4259805,7.29917595 C96.687269,5.74615979 98.3545888,4.96965171 100.42794,4.96965171 C102.052065,4.96965171 103.321992,5.43555656 104.237722,6.36736626 C105.118896,7.26466448 105.559484,8.49844954 105.559484,10.0687214 L105.559484,19.024448 L102.527208,19.024448 L102.527208,10.7158115 C102.527208,9.83576901 102.328512,9.13691174 101.931119,8.61923969 C101.430059,7.94626602 100.617997,7.60977918 99.4949318,7.60977918 C98.3373109,7.60977918 97.378386,7.94626602 96.6181573,8.61923969 C95.8233728,9.32672483 95.4259805,10.2326509 95.4259805,11.337018 L95.4259805,19.024448 L92.3937046,19.024448 Z" id="Path"></path>
                    <polygon id="Path" points="109.602518 19.024448 109.602518 0.336486835 112.634794 0.336486835 112.634794 11.9064572 119.684187 5.28025494 123.442136 5.28025494 117.533086 10.7934623 124.167809 19.024448 120.40986 19.024448 115.381984 12.7088489 112.634794 15.245442 112.634794 19.024448"></polygon>
                </g>
                <g id="Group-3" opacity="0.85">
                    <path d="M26.5427473,0 L38.7735041,7.08261929 L38.7735041,21.2478579 L26.5427473,28.3304772 L14.3119906,21.2478579 L14.3119906,7.08261929 L26.5427473,0 Z M26.5427473,3.63469529 L17.4497169,8.89996694 L17.4497169,19.4294609 L26.5427473,24.6947326 L35.6347316,19.4294609 L35.6347316,8.89996694 L26.5427473,3.63469529 Z" id="Polygon"></path>
                    <path d="M34.6965851,14.1652386 L46.9273419,21.2478579 L46.9273419,35.4130965 L34.6965851,42.4957157 L22.4658284,35.4130965 L22.4658284,21.2478579 L34.6965851,14.1652386 Z M34.696346,17.7999339 L25.6033155,23.0652055 L25.6033155,33.5946995 L34.696346,38.8599712 L43.7883303,33.5946995 L43.7883303,23.0652055 L34.696346,17.7999339 Z" id="Polygon" transform="translate(34.696585, 28.330477) rotate(120.000000) translate(-34.696585, -28.330477) "></path>
                    <path d="M18.3889095,14.1652386 L30.6196662,21.2478579 L30.6196662,35.4130965 L18.3889095,42.4957157 L6.15815277,35.4130965 L6.15815277,21.2478579 L18.3889095,14.1652386 Z M18.3881025,17.7999339 L9.29611823,23.0652055 L9.29611823,33.5946995 L18.3881025,38.8599712 L27.481133,33.5946995 L27.481133,23.0652055 L18.3881025,17.7999339 Z" id="Polygon" transform="translate(18.388910, 28.330477) rotate(240.000000) translate(-18.388910, -28.330477) "></path>
                </g>
            </g>
        </g>
    </g>
</svg>